<svg width="36" height="46" viewBox="0 0 36 46" fill="none" xmlns="http://www.w3.org/2000/svg">
<path d="M35.2978 1.8012C35.0262 1.23685 34.4383 0.834705 33.1215 0.706289C27.0395 0.111519 24.1928 0 17.8599 0H17.8565C11.5201 0 8.75936 0.101381 2.58459 0.706289C1.26437 0.834705 0.676464 1.23685 0.404857 1.80458C0.205449 2.22363 0.177944 2.73391 0.15044 3.28813C-0.183053 10.1043 0.0197936 28.6503 0.941195 39.0858C1.04777 40.2922 1.10622 41.573 1.285 42.6342C1.55661 44.2394 2.23734 44.6956 3.53349 44.9592C5.79574 45.4221 10.2411 45.7905 17.8461 45.7905C25.4512 45.7905 29.9069 45.4255 32.1726 44.9625C33.4687 44.6989 34.1495 44.2461 34.4211 42.6375C34.5998 41.5764 34.6549 40.2956 34.7649 39.0892C35.6863 28.6537 35.8891 10.1077 35.5556 3.29151C35.5281 2.73391 35.5006 2.22363 35.2978 1.8012ZM1.74226 4.04173C1.78352 3.20364 1.65287 2.60887 2.34049 2.14928L12.3693 3.92683C12.7131 3.73421 17.7017 3.73083 17.8565 3.73083C18.0112 3.73083 22.9998 3.73421 23.3436 3.92683L33.2899 2.13576C33.981 2.59198 33.8641 3.20364 33.9054 4.04173C34.0085 6.15046 34.0566 9.42507 34.0498 13.2302L34.0463 13.2944L26.0872 13.8419C24.1103 14.0244 23.88 14.5212 23.8731 15.4167C23.8731 15.4167 23.7803 21.5536 23.7252 23.7097C23.6496 26.7748 23.3814 31.3437 23.378 31.4957C23.3539 32.2291 22.852 32.7664 22.1403 32.8238C22.1403 32.8238 19.603 32.9151 17.8633 32.8982C17.8496 32.8982 17.8393 32.8982 17.8255 32.8982C17.8118 32.8982 17.8015 32.8982 17.7877 32.8982C16.048 32.9117 13.5107 32.8238 13.5107 32.8238C12.7991 32.763 12.2937 32.2291 12.273 31.4957C12.2696 31.3437 12.0014 26.7748 11.9258 23.7097C11.8708 21.5536 11.778 15.4167 11.778 15.4167C11.7745 14.5212 11.5407 14.0244 9.56386 13.8419L1.59786 13.2201C1.59099 9.41831 1.63912 6.14708 1.74226 4.04173ZM17.8221 34.2465H17.8599L21.8274 34.206C24.9217 34.2229 24.6157 33.9627 25.0283 31.2862C25.1314 30.6171 26.5651 15.5552 26.5651 15.5552C26.6132 15.2072 26.8092 15.0585 27.0877 15.0247L33.8228 14.1562C33.9466 14.1393 34.0566 14.2373 34.0532 14.3623C34.0532 14.3623 33.5031 39.2886 32.7914 42.3199C32.6367 42.9721 32.4648 43.1242 31.8872 43.2593C31.8872 43.2593 28.4938 44.0467 17.829 44.0569C7.15722 44.0433 3.76384 43.256 3.76384 43.256C3.18625 43.1208 3.01435 42.9721 2.85963 42.3165C2.14795 39.2886 1.59786 14.3623 1.59786 14.3623C1.59442 14.2407 1.70444 14.1427 1.82821 14.1562L8.56339 15.0247C8.84187 15.0619 9.03784 15.2072 9.08597 15.5552C9.08597 15.5552 10.5196 30.6171 10.6228 31.2862C11.0353 33.9593 10.7293 34.2229 13.8236 34.206L17.7911 34.2465H17.8221Z" fill="#FEFEFE"/>
<path d="M14.8752 37.0572C14.8614 37.037 14.8374 37.0234 14.8133 37.0234H13.7303C13.7028 37.0234 13.6822 37.037 13.665 37.0572L11.413 40.3454C11.3958 40.369 11.413 40.4028 11.444 40.4028H12.496C12.5201 40.4028 12.5442 40.3893 12.5579 40.369L13.1389 39.5242C13.1665 39.4836 13.2146 39.46 13.2627 39.46H15.2774C15.329 39.46 15.3737 39.4836 15.4012 39.5242L15.9822 40.369C15.996 40.3893 16.02 40.4028 16.0441 40.4028H17.0962C17.1271 40.4028 17.1443 40.369 17.1271 40.3454L14.8752 37.0572ZM14.8545 38.9294H13.689C13.6306 38.9294 13.5928 38.8652 13.6272 38.8145L14.2082 37.9629C14.2391 37.919 14.301 37.919 14.332 37.9629L14.9164 38.8145C14.9474 38.8652 14.913 38.9294 14.8545 38.9294Z" fill="#FEFEFE"/>
<path d="M11.3687 37.0234H5.9606C5.92966 37.0234 5.91247 37.0572 5.92966 37.0809L6.20814 37.4898C6.23565 37.5303 6.28378 37.554 6.33191 37.554H8.06814C8.10939 37.554 8.14377 37.5878 8.14377 37.6283V40.3623C8.14377 40.3859 8.16096 40.4028 8.18503 40.4028H9.1305C9.15457 40.4028 9.17176 40.3859 9.17176 40.3623V37.6283C9.17176 37.5878 9.20614 37.554 9.24739 37.554H10.987C11.0386 37.554 11.0833 37.5303 11.1108 37.4898L11.3893 37.0809C11.4168 37.0572 11.3996 37.0234 11.3687 37.0234Z" fill="#FEFEFE"/>
<path d="M23.4769 37.0234H22.5315C22.5074 37.0234 22.4902 37.0437 22.4902 37.064V39.4296C22.4902 39.46 22.4558 39.4769 22.4283 39.46L19.3031 37.0572C19.2756 37.037 19.2412 37.0234 19.2034 37.0234H18.2717C18.2476 37.0234 18.2304 37.0437 18.2304 37.064V40.3623C18.2304 40.3859 18.2476 40.4028 18.2717 40.4028H19.2172C19.2412 40.4028 19.2584 40.3859 19.2584 40.3623V37.9967C19.2584 37.9663 19.2928 37.9494 19.3203 37.9663L22.4455 40.369C22.473 40.3893 22.5074 40.4028 22.5452 40.4028H23.4769C23.501 40.4028 23.5182 40.3859 23.5182 40.3623V37.064C23.5182 37.0437 23.501 37.0234 23.4769 37.0234Z" fill="#FEFEFE"/>
<path d="M29.9994 40.3628L27.7372 38.5278C27.7166 38.5109 27.7166 38.4771 27.7406 38.4602L29.996 37.0679C30.0166 37.0578 30.0063 37.0273 29.9823 37.0273H28.8271C28.7858 37.0273 28.748 37.0375 28.7136 37.0611L26.2554 38.5785C26.2279 38.5954 26.1901 38.5751 26.1901 38.5447V37.0713C26.1901 37.0476 26.1729 37.0307 26.1488 37.0307H25.2033C25.1793 37.0307 25.1621 37.0476 25.1621 37.0713V40.3695C25.1621 40.3932 25.1827 40.4101 25.2033 40.4101H26.1488C26.1729 40.4101 26.1901 40.3932 26.1901 40.3695V39.4639C26.1901 39.4368 26.2038 39.4132 26.2279 39.3997L27.029 38.9063C27.0565 38.8894 27.0943 38.8928 27.1183 38.913L28.9096 40.3662C28.9474 40.3966 28.9955 40.4135 29.0471 40.4135H29.9823C30.0098 40.4033 30.0201 40.3763 29.9994 40.3628Z" fill="#FEFEFE"/>
</svg>
