<svg width="16" height="16" viewBox="0 0 16 16" fill="none" xmlns="http://www.w3.org/2000/svg">
<g opacity="0.8" clip-path="url(#clip0_5929_703)">
<path d="M7.97193 16.0052L7.50721 15.6068C6.86655 15.0704 1.27258 10.2393 1.27258 6.70538C1.27258 3.00544 4.27199 0.00603294 7.97193 0.00603294C11.6719 0.00603294 14.6713 3.00544 14.6713 6.70538C14.6713 10.2393 9.0773 15.0704 8.4393 15.6095L7.97193 16.0052ZM7.97193 1.45463C5.0734 1.45791 2.72449 3.80681 2.72121 6.70535C2.72121 8.92541 6.16283 12.4719 7.97193 14.0951C9.78105 12.4713 13.2226 8.92272 13.2226 6.70535C13.2194 3.80681 10.8705 1.45794 7.97193 1.45463Z" fill="#FEFEFE"/>
<path d="M7.97197 9.36071C6.50534 9.36071 5.31641 8.17177 5.31641 6.70514C5.31641 5.23852 6.50534 4.04958 7.97197 4.04958C9.43859 4.04958 10.6275 5.23852 10.6275 6.70514C10.6275 8.17177 9.43862 9.36071 7.97197 9.36071ZM7.97197 5.37733C7.23866 5.37733 6.64419 5.9718 6.64419 6.70511C6.64419 7.43843 7.23866 8.03289 7.97197 8.03289C8.70528 8.03289 9.29975 7.43843 9.29975 6.70511C9.29975 5.9718 8.70531 5.37733 7.97197 5.37733Z" fill="#FEFEFE"/>
</g>
<defs>
<clipPath id="clip0_5929_703">
<rect width="16" height="16" fill="white"/>
</clipPath>
</defs>
</svg>
