<svg width="16" height="16" viewBox="0 0 16 16" fill="none" xmlns="http://www.w3.org/2000/svg">
<path d="M9.46662 10.76C7.52578 9.93721 5.98224 8.39008 5.16396 6.44733L7.43462 4.17667L3.25796 0L1.14396 2.114C0.777161 2.48253 0.487168 2.9202 0.290791 3.40165C0.0944139 3.88309 -0.00444107 4.39873 -4.25178e-05 4.91867C-4.25178e-05 9.75067 6.16796 15.9187 11 15.9187C11.5199 15.9231 12.0355 15.8242 12.517 15.6278C12.9984 15.4315 13.4361 15.1415 13.8046 14.7747L15.9186 12.6607L11.742 8.484L9.46662 10.76ZM12.8626 13.832C12.6174 14.0746 12.3265 14.266 12.0068 14.3953C11.6871 14.5247 11.3448 14.5892 11 14.5853C6.84463 14.5853 1.33329 9.074 1.33329 4.91867C1.32948 4.5739 1.39409 4.23181 1.52341 3.91219C1.65272 3.59257 1.84415 3.30179 2.08662 3.05667L3.25796 1.88533L5.54929 4.17667L3.59262 6.13333L3.75662 6.54267C4.23731 7.82885 4.98885 8.99668 5.96034 9.96701C6.93182 10.9373 8.10054 11.6875 9.38729 12.1667L9.79129 12.3207L11.742 10.3693L14.0333 12.6607L12.8626 13.832Z" fill="#F68E57"/>
</svg>
