<svg width="32" height="32" viewBox="0 0 32 32" fill="none" xmlns="http://www.w3.org/2000/svg">
<path d="M30.0121 15.3509C30.0147 15.3509 30.0166 15.3509 30.0192 15.3509C30.1977 15.3509 30.368 15.276 30.4889 15.1448C30.6118 15.0117 30.6726 14.8331 30.6566 14.6527C30.0141 7.58514 24.4185 1.9877 17.3504 1.34386C17.1712 1.32978 16.9907 1.38802 16.8576 1.51154C16.7245 1.63442 16.6502 1.80786 16.6521 1.98898C16.7635 11.3816 18.0025 15.2197 30.0121 15.3509ZM30.0121 16.6488C18.0025 16.78 16.7641 20.6181 16.6528 30.0107C16.6509 30.1919 16.7251 30.3653 16.8582 30.4882C16.9773 30.5976 17.1328 30.6584 17.2928 30.6584C17.312 30.6584 17.3318 30.6578 17.351 30.6559C24.4192 30.012 30.0147 24.4152 30.6566 17.3471C30.6726 17.1666 30.6125 16.988 30.4889 16.8549C30.3654 16.7218 30.1933 16.6559 30.0121 16.6488ZM14.6067 1.34706C7.56094 2.00946 1.98334 7.60562 1.34398 14.6539C1.32798 14.8344 1.38814 15.013 1.51166 15.1461C1.63262 15.2773 1.8035 15.3515 1.98142 15.3515C1.98398 15.3515 1.98654 15.3515 1.9891 15.3515C13.959 15.2139 15.1949 11.3778 15.3075 1.99154C15.3094 1.81042 15.2345 1.63634 15.1014 1.51346C14.967 1.39058 14.7872 1.33042 14.6067 1.34706ZM1.98846 16.6482C1.78942 16.6258 1.63326 16.7205 1.51102 16.8536C1.38814 16.9867 1.32734 17.1653 1.34334 17.3458C1.9827 24.3941 7.56094 29.9903 14.6067 30.6527C14.6265 30.6546 14.647 30.6552 14.6669 30.6552C14.8269 30.6552 14.9817 30.5951 15.1008 30.4856C15.2339 30.3627 15.3088 30.1887 15.3069 30.0075C15.1942 20.6219 13.959 16.7858 1.98846 16.6482Z" fill="#FEFEFE"/>
</svg>
