<svg width="32" height="32" viewBox="0 0 32 32" fill="none" xmlns="http://www.w3.org/2000/svg">
<path d="M30.5364 7.75519C30.1874 6.27706 29.1593 5.11294 27.8539 4.71788C25.4878 4 16 4 16 4C16 4 6.5122 4 4.14603 4.71788C2.84065 5.113 1.81253 6.27706 1.46359 7.75519C0.82959 10.4344 0.82959 16.0243 0.82959 16.0243C0.82959 16.0243 0.82959 21.6141 1.46359 24.2933C1.81253 25.7714 2.84065 26.8871 4.14603 27.2821C6.5122 28 16 28 16 28C16 28 25.4878 28 27.8539 27.2821C29.1593 26.8871 30.1874 25.7714 30.5364 24.2933C31.1704 21.6141 31.1704 16.0243 31.1704 16.0243C31.1704 16.0243 31.1704 10.4344 30.5364 7.75519ZM12.8969 21.0994V10.9491L20.8269 16.0244L12.8969 21.0994Z" fill="#FEFEFE"/>
</svg>
