<svg width="270" height="76" viewBox="0 0 270 76" fill="none" xmlns="http://www.w3.org/2000/svg">
<path d="M257.666 0.666504H11.6666C5.59149 0.666504 0.666626 5.59136 0.666626 11.6665V63.6665C0.666626 69.7416 5.59149 74.6665 11.6666 74.6665H257.666C263.741 74.6665 268.666 69.7416 268.666 63.6665V11.6665C268.666 5.59136 263.741 0.666504 257.666 0.666504Z" fill="black" stroke="#252C2C" stroke-width="1.33333"/>
<path d="M65.2495 37.1249C65.2711 35.4557 65.7145 33.8189 66.5385 32.3671C67.3626 30.9151 68.5405 29.6953 69.9627 28.8209C69.0592 27.5306 67.8673 26.4686 66.4816 25.7195C65.0959 24.9704 63.5548 24.5548 61.9803 24.5056C58.6219 24.1531 55.366 26.5151 53.6545 26.5151C51.91 26.5151 49.275 24.5405 46.4376 24.5989C44.6022 24.6583 42.8136 25.192 41.2458 26.1481C39.678 27.1042 38.3847 28.4501 37.4917 30.0547C33.6237 36.7514 36.5089 46.5935 40.2141 52.0067C42.0679 54.6575 44.2345 57.6184 47.0694 57.5134C49.8435 57.3983 50.8795 55.7444 54.2281 55.7444C57.5457 55.7444 58.5178 57.5134 61.4101 57.4466C64.3869 57.3983 66.2625 54.7841 68.0512 52.1083C69.3831 50.2196 70.408 48.1322 71.088 45.9233C69.3586 45.1919 67.8828 43.9675 66.8445 42.403C65.8063 40.8383 65.2516 39.0028 65.2495 37.1249Z" fill="white"/>
<path d="M59.7862 20.9457C61.4094 18.9972 62.209 16.4929 62.0154 13.9644C59.5357 14.2248 57.2452 15.4099 55.6002 17.2836C54.7959 18.1989 54.18 19.2639 53.7874 20.4174C53.3949 21.5709 53.2336 22.7905 53.3128 24.0064C54.553 24.0192 55.78 23.7504 56.9014 23.2201C58.0227 22.69 59.0091 21.9123 59.7862 20.9457Z" fill="white"/>
<path d="M100.316 50.8028H90.8493L88.5759 57.5156H84.5663L93.533 32.6797H97.6989L106.666 57.5156H102.588L100.316 50.8028ZM91.8299 47.7052H99.3338L95.6346 36.8105H95.5311L91.8299 47.7052Z" fill="white"/>
<path d="M126.031 48.4633C126.031 54.0903 123.019 57.7054 118.474 57.7054C117.323 57.7657 116.178 57.5005 115.171 56.9401C114.163 56.3799 113.334 55.5472 112.777 54.5374H112.691V63.5062H108.974V39.4086H112.572V42.4203H112.641C113.222 41.4154 114.066 40.587 115.081 40.0233C116.096 39.4596 117.246 39.1818 118.406 39.2191C123.002 39.2191 126.031 42.852 126.031 48.4633ZM122.211 48.4633C122.211 44.7973 120.316 42.3871 117.426 42.3871C114.586 42.3871 112.676 44.848 112.676 48.4633C112.676 52.1118 114.586 54.5551 117.426 54.5551C120.316 54.5551 122.211 52.1625 122.211 48.4633Z" fill="white"/>
<path d="M145.961 48.4633C145.961 54.0903 142.949 57.7054 138.404 57.7054C137.253 57.7657 136.108 57.5005 135.1 56.9401C134.093 56.3799 133.263 55.5472 132.707 54.5374H132.621V63.5062H128.904V39.4086H132.502V42.4203H132.57C133.152 41.4154 133.995 40.587 135.011 40.0233C136.026 39.4596 137.175 39.1818 138.336 39.2191C142.931 39.2191 145.961 42.852 145.961 48.4633ZM142.14 48.4633C142.14 44.7973 140.246 42.3871 137.355 42.3871C134.515 42.3871 132.605 44.848 132.605 48.4633C132.605 52.1118 134.515 54.5551 137.355 54.5551C140.246 54.5551 142.14 52.1625 142.14 48.4633Z" fill="white"/>
<path d="M159.133 50.5958C159.408 53.0588 161.8 54.6758 165.07 54.6758C168.202 54.6758 170.457 53.0586 170.457 50.8379C170.457 48.9102 169.098 47.756 165.879 46.9649L162.66 46.1895C158.1 45.0879 155.982 42.9551 155.982 39.4941C155.982 35.2091 159.717 32.2656 165.019 32.2656C170.268 32.2656 173.865 35.2091 173.986 39.4941H170.235C170.01 37.0157 167.961 35.5196 164.967 35.5196C161.973 35.5196 159.924 37.0332 159.924 39.2364C159.924 40.9922 161.232 42.0254 164.433 42.8163L167.17 43.4883C172.266 44.6933 174.382 46.7403 174.382 50.373C174.382 55.0194 170.682 57.9296 164.794 57.9296C159.286 57.9296 155.568 55.0878 155.328 50.5956L159.133 50.5958Z" fill="white"/>
<path d="M182.404 35.123V39.4082H185.847V42.3517H182.404V52.334C182.404 53.8847 183.094 54.6075 184.608 54.6075C185.016 54.6004 185.424 54.5716 185.83 54.5215V57.4473C185.149 57.5744 184.458 57.632 183.765 57.6191C180.099 57.6191 178.669 56.2421 178.669 52.7305V42.3517H176.037V39.4082H178.669V35.123H182.404Z" fill="white"/>
<path d="M187.842 48.4634C187.842 42.7661 191.197 39.186 196.429 39.186C201.679 39.186 205.02 42.7659 205.02 48.4634C205.02 54.1763 201.697 57.7407 196.429 57.7407C191.164 57.7407 187.842 54.1763 187.842 48.4634ZM201.232 48.4634C201.232 44.5551 199.441 42.2486 196.429 42.2486C193.417 42.2486 191.629 44.5727 191.629 48.4634C191.629 52.3872 193.417 54.6762 196.429 54.6762C199.441 54.6762 201.232 52.3872 201.232 48.4634Z" fill="white"/>
<path d="M208.084 39.4084H211.629V42.4905H211.714C211.954 41.5279 212.518 40.6773 213.312 40.0815C214.105 39.4857 215.079 39.1812 216.07 39.219C216.499 39.2175 216.925 39.264 217.344 39.3576V42.8341C216.802 42.669 216.238 42.5931 215.674 42.6096C215.134 42.5877 214.596 42.6829 214.096 42.8887C213.595 43.0944 213.147 43.4059 212.779 43.8016C212.41 44.1975 212.133 44.6682 211.965 45.1815C211.795 45.6949 211.74 46.2387 211.801 46.7755V57.5158H208.084V39.4084Z" fill="white"/>
<path d="M234.48 52.1976C233.98 55.4847 230.779 57.7406 226.683 57.7406C221.416 57.7406 218.146 54.2114 218.146 48.5493C218.146 42.8696 221.433 39.186 226.527 39.186C231.537 39.186 234.687 42.6273 234.687 48.1176V49.3911H221.898V49.6157C221.839 50.2821 221.923 50.9534 222.144 51.585C222.363 52.2167 222.715 52.7943 223.176 53.2794C223.638 53.7645 224.196 54.146 224.815 54.3986C225.435 54.6512 226.101 54.7692 226.77 54.7445C227.647 54.8268 228.529 54.6234 229.282 54.1646C230.035 53.7057 230.622 53.0159 230.95 52.1976H234.48ZM221.916 46.7934H230.968C231.001 46.1942 230.911 45.5946 230.701 45.0321C230.493 44.4698 230.169 43.9566 229.752 43.5251C229.335 43.0937 228.834 42.7529 228.279 42.5246C227.724 42.2961 227.127 42.1848 226.527 42.1977C225.922 42.1941 225.322 42.3104 224.761 42.5399C224.202 42.7694 223.693 43.1075 223.264 43.5347C222.835 43.962 222.495 44.4699 222.264 45.0293C222.033 45.5886 221.914 46.1882 221.916 46.7934Z" fill="white"/>
<path d="M89.1882 19.0306H90.7839C91.0585 19.0648 91.3374 19.0419 91.6027 18.963C91.8679 18.8841 92.1141 18.751 92.3254 18.5724C92.5369 18.3936 92.709 18.1731 92.8309 17.9245C92.9527 17.676 93.0219 17.4049 93.0339 17.1283C93.0339 16.0278 92.2057 15.3168 90.8014 15.3168C90.52 15.2775 90.2335 15.295 89.959 15.3682C89.6844 15.4414 89.4273 15.5689 89.2029 15.7431C88.9783 15.9174 88.791 16.1347 88.6519 16.3827C88.5129 16.6305 88.425 16.9036 88.3932 17.1859H86.6412C86.6713 16.6734 86.8068 16.1725 87.0388 15.7144C87.271 15.2565 87.5949 14.851 87.9904 14.5237C88.386 14.1963 88.8448 13.9539 89.3382 13.8114C89.8314 13.6689 90.3489 13.6296 90.858 13.6957C93.2076 13.6957 94.8621 15.0111 94.8621 16.9047C94.8675 17.539 94.6552 18.1561 94.2607 18.6529C93.8662 19.1496 93.3132 19.4961 92.694 19.6342V19.7748C93.4281 19.8073 94.1193 20.1292 94.6167 20.67C95.1141 21.2107 95.377 21.9264 95.3484 22.6606C95.2939 23.1883 95.1349 23.7 94.8802 24.1654C94.6257 24.6309 94.2807 25.041 93.8655 25.3714C93.4504 25.7017 92.9736 25.9461 92.4628 26.0898C91.9521 26.2335 91.4178 26.2738 90.8913 26.2084C90.3636 26.2804 89.8269 26.2453 89.3131 26.1054C88.7994 25.9654 88.3189 25.7235 87.9007 25.3941C87.4824 25.0645 87.1347 24.6541 86.8785 24.1873C86.6221 23.7205 86.4624 23.2069 86.4088 22.6771H88.1881C88.2955 23.8188 89.3445 24.5551 90.8913 24.5551C92.4381 24.5551 93.4479 23.728 93.4479 22.5621C93.4479 21.3795 92.4967 20.6509 90.8346 20.6509H89.1882V19.0306Z" fill="white"/>
<path d="M97.3698 23.3726C97.3698 21.7514 98.5788 20.8169 100.719 20.6841L103.159 20.5434V19.7661C103.159 18.815 102.532 18.2778 101.315 18.2778C100.323 18.2778 99.6373 18.642 99.4381 19.2788H97.7175C97.8991 17.732 99.3561 16.7397 101.399 16.7397C103.657 16.7397 104.93 17.8637 104.93 19.7661V25.9194H103.217V24.6537H103.077C102.791 25.1078 102.391 25.4778 101.915 25.7262C101.44 25.9748 100.907 26.0925 100.372 26.0678C99.9937 26.1071 99.6115 26.0667 99.25 25.9494C98.8885 25.832 98.5555 25.6401 98.2727 25.3862C97.9898 25.1322 97.7633 24.8219 97.6079 24.4751C97.4524 24.1283 97.3713 23.7527 97.3698 23.3726ZM103.159 22.6029V21.8501L100.96 21.9906C99.7192 22.0737 99.1567 22.4955 99.1567 23.2895C99.1567 24.1001 99.8599 24.5717 100.827 24.5717C101.11 24.6005 101.396 24.5718 101.668 24.4877C101.94 24.4035 102.193 24.2654 102.41 24.0818C102.628 23.898 102.806 23.6724 102.935 23.4185C103.063 23.1644 103.139 22.887 103.159 22.6029Z" fill="white"/>
<path d="M109.647 18.4097V25.9194H107.87V16.9136H113.8V18.4095L109.647 18.4097Z" fill="white"/>
<path d="M124.571 21.4125C124.571 24.2739 123.124 26.0677 120.85 26.0677C120.292 26.106 119.735 25.9837 119.244 25.7158C118.753 25.4478 118.349 25.045 118.079 24.5551H117.938V28.9135H116.161V16.9135H117.872V18.4018H118.004C118.279 17.8947 118.689 17.4735 119.188 17.1844C119.687 16.8954 120.256 16.75 120.833 16.7641C123.123 16.7641 124.571 18.5502 124.571 21.4125ZM122.743 21.4125C122.743 19.5102 121.842 18.3607 120.337 18.3607C118.841 18.3607 117.905 19.5346 117.905 21.4203C117.905 23.2972 118.84 24.472 120.329 24.472C121.842 24.472 122.743 23.3227 122.743 21.4125Z" fill="white"/>
<path d="M126.938 29.145V27.6147C127.13 27.6392 127.324 27.6503 127.518 27.6479C127.897 27.6759 128.272 27.5631 128.573 27.3312C128.874 27.0993 129.078 26.7645 129.147 26.391L129.28 25.9526L126.02 16.9136H127.955L130.213 24.0668H130.354L132.604 16.9136H134.489L131.131 26.2914C130.362 28.4829 129.51 29.186 127.674 29.186C127.526 29.186 127.104 29.1693 126.938 29.145Z" fill="white"/>
<path d="M135.874 23.3635H137.643C137.817 24.1574 138.561 24.5714 139.602 24.5714C140.786 24.5714 141.512 24.05 141.512 23.2394C141.512 22.3714 140.86 21.9572 139.602 21.9572H138.254V20.5765H139.579C140.653 20.5765 141.2 20.1634 141.2 19.4104C141.2 18.7493 140.67 18.2444 139.579 18.2444C138.584 18.2444 137.858 18.6662 137.743 19.3772H136.03C136.158 18.5603 136.601 17.8262 137.265 17.333C137.929 16.8397 138.76 16.6267 139.579 16.7395C141.719 16.7395 142.944 17.7073 142.944 19.2287C142.954 19.6525 142.818 20.0668 142.559 20.4023C142.3 20.738 141.934 20.9746 141.522 21.0725V21.2132C142.013 21.2765 142.463 21.5177 142.788 21.8914C143.113 22.2649 143.289 22.7446 143.284 23.2396C143.284 24.9515 141.827 26.0842 139.602 26.0842C137.635 26.0842 136.038 25.1828 135.874 23.3635Z" fill="white"/>
<path d="M145.843 25.9194V16.9136H147.605V23.1078H147.746L151.896 16.9136H153.658V25.9194H151.896V19.6919H151.764L147.605 25.9194H145.843Z" fill="white"/>
<path d="M163.363 18.4097H160.527V25.9194H158.748V18.4097H155.911V16.9136H163.363V18.4097Z" fill="white"/>
<path d="M172.938 23.4875C172.695 24.3105 172.171 25.0223 171.457 25.4985C170.745 25.9748 169.885 26.1851 169.033 26.093C168.439 26.1086 167.85 25.9949 167.305 25.7598C166.759 25.5248 166.273 25.1739 165.877 24.7317C165.481 24.2894 165.186 23.7663 165.013 23.1987C164.839 22.631 164.791 22.0325 164.872 21.4445C164.794 20.8547 164.842 20.2548 165.015 19.6854C165.189 19.1162 165.481 18.5906 165.876 18.1445C166.269 17.6984 166.753 17.342 167.298 17.0996C167.841 16.8572 168.43 16.7343 169.026 16.7394C171.531 16.7394 173.044 18.4514 173.044 21.2793V21.8996H166.686V21.9992C166.657 22.3298 166.698 22.6625 166.806 22.9761C166.915 23.2898 167.088 23.5773 167.313 23.8203C167.539 24.0633 167.814 24.2564 168.118 24.387C168.423 24.5178 168.751 24.5832 169.084 24.5792C169.509 24.63 169.939 24.5534 170.32 24.359C170.701 24.1644 171.016 23.8611 171.225 23.4873L172.938 23.4875ZM166.686 20.5851H171.232C171.255 20.283 171.213 19.9796 171.112 19.6943C171.01 19.4088 170.85 19.148 170.641 18.9284C170.433 18.7086 170.181 18.5349 169.9 18.4185C169.621 18.3021 169.32 18.2454 169.017 18.2522C168.709 18.248 168.405 18.3054 168.12 18.4212C167.835 18.537 167.575 18.7086 167.359 18.9261C167.142 19.1436 166.969 19.4025 166.854 19.6875C166.738 19.9724 166.681 20.2776 166.686 20.5851Z" fill="white"/>
<path d="M180.472 16.9136H184.533C186.295 16.9136 187.327 17.8061 187.327 19.2035C187.33 19.6469 187.18 20.0778 186.904 20.4242C186.627 20.7704 186.24 21.0111 185.806 21.1059V21.2465C186.333 21.2798 186.825 21.5136 187.183 21.9C187.542 22.2864 187.738 22.7957 187.732 23.3226C187.732 24.8939 186.55 25.9193 184.573 25.9193H180.472V16.9136ZM182.235 18.2778V20.6097H183.996C185.07 20.6097 185.584 20.1968 185.584 19.4349C185.584 18.7329 185.136 18.2778 184.192 18.2778H182.235ZM182.235 21.9165V24.5552H184.341C185.392 24.5552 185.955 24.0912 185.955 23.2397C185.955 22.3383 185.319 21.9165 184.119 21.9165H182.235Z" fill="white"/>
</svg>
