<svg width="16" height="16" viewBox="0 0 16 16" fill="none" xmlns="http://www.w3.org/2000/svg">
<path fill-rule="evenodd" clip-rule="evenodd" d="M3.03197 2.00616C6.07 1.99795 7.84016 1.99795 8.34625 2.00616V4.46991H6.82875V5.29116H8.34625L9.105 6.93366H9.86375L10.6225 5.29116H12.14V13.5037H10.6354L9.86375 11.8612H9.105L8.34625 13.5037H3.03197L2.27625 11.8612H0V6.11241H2.27625V5.29116H4.55326V4.46991H3.03197V2.00616ZM7.5875 2.82741H3.79375V3.64866H5.31125V6.11241H3.035V6.93366H0.75875V11.0399H2.84531L3.60406 12.6824H7.68614L8.53594 11.0399H10.4328L11.2219 12.6824H11.3813V6.11241H11.1916L10.4328 7.75491H8.53594L7.77719 6.11241H6.07V3.64866H7.5875V2.82741Z" fill="white"/>
</svg>
