<svg width="16" height="16" viewBox="0 0 16 16" fill="none" xmlns="http://www.w3.org/2000/svg">
<g clip-path="url(#clip0_2029_2254)">
<path d="M9.46656 10.8411C7.52572 10.0183 5.98217 8.47114 5.1639 6.52839L7.43456 4.25772L3.2579 0.0810547L1.1439 2.19505C0.7771 2.56358 0.487107 3.00126 0.29073 3.4827C0.0943528 3.96415 -0.00450211 4.47979 -0.000103553 4.99972C-0.000103553 9.83172 6.1679 15.9997 10.9999 15.9997C11.5198 16.0041 12.0355 15.9053 12.5169 15.7089C12.9984 15.5125 13.436 15.2225 13.8046 14.8557L15.9186 12.7417L11.7419 8.56505L9.46656 10.8411ZM12.8626 13.9131C12.6174 14.1556 12.3265 14.3471 12.0067 14.4764C11.687 14.6057 11.3448 14.6703 10.9999 14.6664C6.84456 14.6664 1.33323 9.15505 1.33323 4.99972C1.32941 4.65496 1.39403 4.31286 1.52335 3.99325C1.65266 3.67363 1.84409 3.38284 2.08656 3.13772L3.2579 1.96639L5.54923 4.25772L3.59256 6.21439L3.75656 6.62372C4.23725 7.90991 4.98879 9.07773 5.96028 10.0481C6.93176 11.0184 8.10048 11.7686 9.38723 12.2477L9.79123 12.4017L11.7419 10.4504L14.0332 12.7417L12.8626 13.9131Z" fill="#F68E57"/>
</g>
<defs>
<clipPath id="clip0_2029_2254">
<rect width="16" height="16" fill="white"/>
</clipPath>
</defs>
</svg>
