<svg width="16" height="16" viewBox="0 0 16 16" fill="none" xmlns="http://www.w3.org/2000/svg">
<g clip-path="url(#clip0_2029_427)">
<path d="M9.46656 10.8413C7.52572 10.0185 5.98217 8.47141 5.1639 6.52866L7.43456 4.258L3.2579 0.0813293L1.1439 2.19533C0.7771 2.56386 0.487107 3.00153 0.29073 3.48298C0.0943528 3.96442 -0.00450211 4.48006 -0.000103553 5C-0.000103553 9.832 6.1679 16 10.9999 16C11.5198 16.0044 12.0355 15.9055 12.5169 15.7092C12.9984 15.5128 13.436 15.2228 13.8046 14.856L15.9186 12.742L11.7419 8.56533L9.46656 10.8413ZM12.8626 13.9133C12.6174 14.1559 12.3265 14.3474 12.0067 14.4767C11.687 14.606 11.3448 14.6706 10.9999 14.6667C6.84456 14.6667 1.33323 9.15533 1.33323 5C1.32941 4.65523 1.39403 4.31314 1.52335 3.99352C1.65266 3.6739 1.84409 3.38312 2.08656 3.138L3.2579 1.96666L5.54923 4.258L3.59256 6.21466L3.75656 6.624C4.23725 7.91018 4.98879 9.07801 5.96028 10.0483C6.93176 11.0187 8.10048 11.7688 9.38723 12.248L9.79123 12.402L11.7419 10.4507L14.0332 12.742L12.8626 13.9133Z" fill="#F68E57"/>
</g>
<defs>
<clipPath id="clip0_2029_427">
<rect width="16" height="16" fill="white"/>
</clipPath>
</defs>
</svg>
