<svg width="14" height="16" viewBox="0 0 14 16" fill="none" xmlns="http://www.w3.org/2000/svg">
<path d="M6.69934 15.9992L6.23462 15.6008C5.59397 15.0644 0 10.2332 0 6.69934C0 2.99941 2.99941 0 6.69934 0C10.3993 0 13.3987 2.99941 13.3987 6.69934C13.3987 10.2332 7.80472 15.0644 7.16672 15.6035L6.69934 15.9992ZM6.69934 1.44859C3.80081 1.45187 1.45191 3.80078 1.44862 6.69931C1.44862 8.91937 4.89025 12.4659 6.69934 14.0891C8.50847 12.4652 11.9501 8.91669 11.9501 6.69931C11.9468 3.80078 9.59791 1.45191 6.69934 1.44859Z" fill="#FEFEFE"/>
<path d="M6.69951 9.35467C5.23288 9.35467 4.04395 8.16574 4.04395 6.69911C4.04395 5.23249 5.23288 4.04355 6.69951 4.04355C8.16613 4.04355 9.35507 5.23249 9.35507 6.69911C9.35507 8.16574 8.16616 9.35467 6.69951 9.35467ZM6.69951 5.3713C5.9662 5.3713 5.37173 5.96577 5.37173 6.69908C5.37173 7.43239 5.9662 8.02686 6.69951 8.02686C7.43282 8.02686 8.02729 7.43239 8.02729 6.69908C8.02729 5.96577 7.43285 5.3713 6.69951 5.3713Z" fill="#FEFEFE"/>
</svg>
