<svg width="16" height="16" viewBox="0 0 16 16" fill="none" xmlns="http://www.w3.org/2000/svg">
<path fill-rule="evenodd" clip-rule="evenodd" d="M8.66717 2.97617H9.13305C9.6076 2.97617 9.9935 3.36274 9.9935 3.83662V4.08789C9.9935 4.56244 9.60693 4.94835 9.13305 4.94835H8.66717C8.61402 5.14843 8.49628 5.32536 8.33226 5.45167C8.16823 5.57797 7.96708 5.64658 7.76006 5.64684H7.37682V13.0976C7.37682 13.7775 6.82363 14.33 6.1438 14.33H5.19937C4.51954 14.33 3.96634 13.7768 3.96634 13.097V5.6475H3.5831C3.3345 5.64715 3.09618 5.54824 2.92039 5.37245C2.74461 5.19666 2.64569 4.95834 2.64534 4.70974V3.21678C2.64534 2.69958 3.06523 2.27835 3.5831 2.27835H3.96701V2.23302C3.96701 1.55319 4.51887 1 5.1987 1H6.14313C6.82296 1 7.37616 1.55319 7.37616 2.23302V2.27768H7.75939C7.96642 2.27794 8.16756 2.34654 8.33159 2.47285C8.49562 2.59915 8.61402 2.77609 8.66717 2.97617ZM3.46647 4.70907C3.46647 4.77306 3.51912 4.82504 3.5831 4.82504H5.97717V3.09947H3.5831C3.55217 3.09947 3.5225 3.11176 3.50063 3.13364C3.47876 3.15551 3.46647 3.18518 3.46647 3.21611V4.70907ZM6.1438 13.5082C6.37041 13.5082 6.55503 13.3243 6.55503 13.0976V5.64684H4.7888V13.0976C4.7888 13.3243 4.97276 13.5082 5.19937 13.5082H6.1438ZM6.38774 2.27768H6.55436V2.23302C6.55418 2.12419 6.51087 2.01986 6.43392 1.94291C6.35696 1.86595 6.25263 1.82264 6.1438 1.82246H5.19937C5.09053 1.82264 4.98621 1.86595 4.90925 1.94291C4.83229 2.01986 4.78898 2.12419 4.7888 2.23302V2.27835H6.3884L6.38774 2.27768ZM7.76006 4.82504C7.79088 4.82504 7.82045 4.81285 7.8423 4.79112C7.86416 4.76939 7.87652 4.73989 7.8767 4.70907V3.21611C7.8767 3.18518 7.86441 3.15551 7.84254 3.13364C7.82066 3.11176 7.79099 3.09947 7.76006 3.09947H6.7983V4.82571L7.76006 4.82504ZM9.13305 4.12655C9.14325 4.12638 9.15298 4.12225 9.16019 4.11504C9.16741 4.10783 9.17154 4.09809 9.17171 4.08789V3.83662C9.17171 3.82637 9.16763 3.81654 9.16039 3.80929C9.15314 3.80204 9.1433 3.79797 9.13305 3.79797H8.69782V4.12655H9.13305ZM0.369908 2.41031H1.12305C1.36488 2.41067 1.59669 2.50693 1.76762 2.67799C1.93855 2.84905 2.03465 3.08093 2.03483 3.32275C2.03447 3.56458 1.93821 3.79639 1.76715 3.96732C1.59609 4.13825 1.36421 4.23435 1.12239 4.23452H0.739816V4.58777C0.739816 4.68587 0.700843 4.77996 0.631472 4.84933C0.562101 4.9187 0.468014 4.95768 0.369908 4.95768C0.271802 4.95768 0.177715 4.9187 0.108344 4.84933C0.0389729 4.77996 6.01586e-07 4.68587 6.01586e-07 4.58777V2.78022C6.01586e-07 2.57627 0.165292 2.41031 0.369908 2.41031ZM0.739816 3.49538H1.12239C1.16555 3.49158 1.20573 3.47175 1.23499 3.4398C1.26426 3.40784 1.28049 3.36608 1.28049 3.32275C1.28049 3.27942 1.26426 3.23766 1.23499 3.20571C1.20573 3.17376 1.16555 3.15393 1.12239 3.15013H0.739816V3.49538ZM1.66492 8.31417C1.56693 8.31417 1.47294 8.35305 1.40359 8.42228C1.33424 8.49151 1.29519 8.58542 1.29501 8.68341V9.33991L0.6705 8.46813C0.461885 8.17687 6.01586e-07 8.32483 6.01586e-07 8.68341V10.491C6.01586e-07 10.5891 0.0389729 10.6832 0.108344 10.7525C0.177715 10.8219 0.271802 10.8609 0.369908 10.8609C0.468014 10.8609 0.562101 10.8219 0.631472 10.7525C0.700843 10.6832 0.739816 10.5891 0.739816 10.491V9.83446L1.36433 10.7062C1.57294 10.9982 2.03483 10.8509 2.03483 10.491V8.68341C2.03483 8.58531 1.99585 8.49122 1.92648 8.42185C1.85711 8.35248 1.76302 8.3135 1.66492 8.3135V8.31417ZM0.369908 11.2641H1.11239C1.62093 11.2641 2.03483 11.6773 2.03483 12.1865V12.889C2.03483 13.3976 1.62093 13.8115 1.11239 13.8115H0.369908C0.271918 13.8115 0.177931 13.7726 0.108579 13.7034C0.0392275 13.6341 0.000177161 13.5402 6.01586e-07 13.4422V11.6347C6.01586e-07 11.4301 0.165292 11.2641 0.369908 11.2641ZM1.11239 13.0716C1.16077 13.0715 1.20712 13.0522 1.24133 13.018C1.27554 12.9838 1.29483 12.9374 1.29501 12.889V12.1865C1.29483 12.1382 1.27554 12.0918 1.24133 12.0576C1.20712 12.0234 1.16077 12.0041 1.11239 12.0039H0.739149V13.0716H1.11239ZM1.12239 5.36158H0.369242C0.320665 5.36166 0.272581 5.37132 0.227735 5.38999C0.182889 5.40866 0.14216 5.43598 0.107873 5.47039C0.0735854 5.5048 0.0464116 5.54563 0.0279029 5.59054C0.0093942 5.63545 -8.70033e-05 5.68357 6.01586e-07 5.73215V7.5397C6.01586e-07 7.6378 0.0389729 7.73189 0.108344 7.80126C0.177715 7.87063 0.271802 7.90961 0.369908 7.90961C0.468014 7.90961 0.562101 7.87063 0.631472 7.80126C0.700843 7.73189 0.739816 7.6378 0.739816 7.5397V7.18645H0.851788L1.38899 7.7863C1.42103 7.8237 1.46021 7.85432 1.50425 7.87638C1.54828 7.89843 1.59627 7.91147 1.64541 7.91473C1.69455 7.91799 1.74385 7.9114 1.79041 7.89536C1.83697 7.87931 1.87986 7.85413 1.91656 7.82129C1.95326 7.78846 1.98303 7.74862 2.00413 7.70412C2.02523 7.65962 2.03723 7.61136 2.03943 7.56216C2.04163 7.51296 2.03399 7.46382 2.01694 7.41762C1.9999 7.37141 1.9738 7.32908 1.94018 7.29309L1.67625 6.9985C1.82813 6.88297 1.93991 6.72266 1.9958 6.54019C2.05169 6.35773 2.04888 6.16232 1.98776 5.98154C1.92664 5.80076 1.8103 5.64373 1.65515 5.53262C1.5 5.4215 1.31389 5.36191 1.12305 5.36224L1.12239 5.36158ZM1.12239 6.44597H0.739816V6.10139H1.12239C1.16488 6.10598 1.20418 6.1261 1.23274 6.1579C1.26129 6.18971 1.27709 6.23094 1.27709 6.27368C1.27709 6.31642 1.26129 6.35766 1.23274 6.38946C1.20418 6.42126 1.16488 6.44139 1.12239 6.44597ZM3.14921 7.1318H2.88928C2.80826 7.12807 2.7318 7.09326 2.67579 7.03461C2.61977 6.97596 2.58852 6.89798 2.58852 6.81688C2.58852 6.73578 2.61977 6.65779 2.67579 6.59914C2.7318 6.54049 2.80826 6.50569 2.88928 6.50196H3.14921C3.23023 6.50569 3.30669 6.54049 3.36271 6.59914C3.41872 6.65779 3.44998 6.73578 3.44998 6.81688C3.44998 6.89798 3.41872 6.97596 3.36271 7.03461C3.30669 7.09326 3.23023 7.12807 3.14921 7.1318ZM3.14921 9.94376C3.19061 9.94376 3.23161 9.93561 3.26986 9.91977C3.3081 9.90392 3.34286 9.8807 3.37213 9.85143C3.40141 9.82215 3.42463 9.7874 3.44047 9.74915C3.45631 9.7109 3.46447 9.66991 3.46447 9.62851C3.46447 9.58711 3.45631 9.54611 3.44047 9.50787C3.42463 9.46962 3.40141 9.43486 3.37213 9.40559C3.34286 9.37632 3.3081 9.35309 3.26986 9.33725C3.23161 9.32141 3.19061 9.31325 3.14921 9.31325H2.88928C2.84788 9.31325 2.80688 9.32141 2.76864 9.33725C2.73039 9.35309 2.69563 9.37632 2.66636 9.40559C2.63709 9.43486 2.61386 9.46962 2.59802 9.50787C2.58218 9.54611 2.57402 9.58711 2.57402 9.62851C2.57402 9.66991 2.58218 9.7109 2.59802 9.74915C2.61386 9.7874 2.63709 9.82215 2.66636 9.85143C2.69563 9.8807 2.73039 9.90392 2.76864 9.91977C2.80688 9.93561 2.84788 9.94376 2.88928 9.94376H3.14921ZM2.98259 12.1872H3.24252C3.32613 12.1872 3.40632 12.2204 3.46544 12.2795C3.52456 12.3387 3.55778 12.4188 3.55778 12.5025C3.55778 12.5861 3.52456 12.6663 3.46544 12.7254C3.40632 12.7845 3.32613 12.8177 3.24252 12.8177H2.98259C2.89898 12.8177 2.81879 12.7845 2.75967 12.7254C2.70055 12.6663 2.66733 12.5861 2.66733 12.5025C2.66733 12.4188 2.70055 12.3387 2.75967 12.2795C2.81879 12.2204 2.89898 12.1872 2.98259 12.1872Z" fill="white"/>
</svg>
