<svg width="16" height="16" viewBox="0 0 16 16" fill="none" xmlns="http://www.w3.org/2000/svg">
<path d="M8.07714 5.80828H8.84643C9.48214 5.80828 10 5.2955 10 4.66572V3.14256C10 2.51278 9.48214 2 8.84643 2H8.07714C7.44071 2 6.92286 2.51278 6.92286 3.14256V3.52317H6.08286C5.99846 3.30241 5.84972 3.11278 5.65635 2.97942C5.46297 2.84606 5.23407 2.77525 5 2.77639C4.50429 2.77639 4.08 3.08767 3.91714 3.52317H3.07714V3.14256C3.07714 2.51278 2.55929 2 1.92286 2H1.15357C0.517857 2 0 2.51278 0 3.14256V4.66644C0 5.29622 0.517857 5.80828 1.15357 5.80828H1.92286C2.55929 5.80828 3.07714 5.2955 3.07714 4.66572V4.28511H3.90714C4.02143 4.61589 4.28357 4.8795 4.61571 4.99578V12.0331C4.45708 12.0882 4.31232 12.1779 4.19163 12.2956C4.07093 12.4134 3.97724 12.5565 3.91714 12.7149H3.07714V12.3343C3.07714 11.7038 2.55929 11.1917 1.92286 11.1917H1.15357C0.517857 11.1917 0 11.7045 0 12.3343V13.8574C0 14.4872 0.517857 15 1.15357 15H1.92286C2.55929 15 3.07714 14.4872 3.07714 13.8574V13.4768H3.90714C4.06214 13.9275 4.49286 14.2525 5 14.2525C5.50714 14.2525 5.93786 13.9275 6.09286 13.4768H6.92286V13.8574C6.92286 14.4872 7.44071 15 8.07714 15H8.84643C9.48214 15 10 14.4872 10 13.8574V12.3336C10 11.7038 9.48214 11.1917 8.84643 11.1917H8.07714C7.44071 11.1917 6.92286 11.7045 6.92286 12.3343V12.7149H6.08286C6.02279 12.5566 5.92919 12.4136 5.80864 12.2958C5.68808 12.178 5.54348 12.0884 5.385 12.0331V4.99578C5.71714 4.87878 5.97929 4.61589 6.09214 4.28511H6.92286V4.66572C6.92286 5.29622 7.44071 5.80828 8.07714 5.80828ZM2.30714 13.8574C2.30714 14.0669 2.13429 14.2381 1.92214 14.2381H1.15357C1.05278 14.2388 0.955778 14.1992 0.883771 14.1279C0.811764 14.0566 0.770604 13.9594 0.769286 13.8574V12.3336C0.769286 12.1241 0.941428 11.9529 1.15357 11.9529H1.92286C2.135 11.9529 2.30786 12.1241 2.30786 12.3343L2.30714 13.8574ZM7.69143 12.3336C7.69143 12.1241 7.86429 11.9529 8.07643 11.9529H8.84572C9.05714 11.9529 9.23 12.1241 9.23 12.3343V13.8574C9.23 14.0669 9.05786 14.2381 8.84572 14.2381H8.07643C7.97551 14.239 7.87833 14.1995 7.80617 14.1282C7.73401 14.0568 7.69275 13.9595 7.69143 13.8574V12.3336ZM5 3.53833C5.21214 3.53833 5.385 3.7095 5.385 3.91967C5.385 4.12911 5.21214 4.30028 5 4.30028C4.89908 4.30124 4.8019 4.26173 4.72974 4.19039C4.65758 4.11905 4.61632 4.0217 4.615 3.91967C4.615 3.7095 4.78786 3.53833 5 3.53833ZM5 13.492C4.89896 13.493 4.80167 13.4533 4.72949 13.3819C4.65731 13.3104 4.61613 13.2128 4.615 13.1107C4.615 12.9012 4.78786 12.7301 5 12.7301C5.21214 12.7301 5.385 12.9005 5.385 13.1107C5.385 13.3208 5.21214 13.492 5 13.492Z" fill="white"/>
</svg>
