<svg xmlns="http://www.w3.org/2000/svg" width="36" height="46" viewBox="0 0 36 46" fill="none">
  <g clip-path="url(#clip0_1007_7958)">
    <mask id="mask0_1007_7958" style="mask-type:luminance" maskUnits="userSpaceOnUse" x="0" y="0" width="36" height="46">
      <path d="M36 0H0V46H36V0Z" fill="white"/>
    </mask>
    <g mask="url(#mask0_1007_7958)">
      <path d="M35.2988 1.8012C35.0272 1.23685 34.4393 0.834705 33.1225 0.706289C27.0405 0.111519 24.1938 0 17.8609 0H17.8575C11.5211 0 8.76034 0.101381 2.58557 0.706289C1.26535 0.834705 0.677441 1.23685 0.405834 1.80458C0.206426 2.22363 0.178921 2.73391 0.151417 3.28813C-0.182076 10.1043 0.0207702 28.6503 0.942172 39.0858C1.04875 40.2922 1.1072 41.573 1.28598 42.6342C1.55759 44.2394 2.23832 44.6956 3.53447 44.9592C5.79672 45.4221 10.2421 45.7905 17.8471 45.7905C25.4522 45.7905 29.9079 45.4255 32.1736 44.9625C33.4697 44.6989 34.1505 44.2461 34.4221 42.6375C34.6008 41.5764 34.6559 40.2956 34.7659 39.0892C35.6873 28.6537 35.8901 10.1077 35.5566 3.29151C35.5291 2.73391 35.5016 2.22363 35.2988 1.8012ZM1.74324 4.04173C1.7845 3.20364 1.65385 2.60887 2.34147 2.14928L12.3703 3.92683C12.7141 3.73421 17.7027 3.73083 17.8575 3.73083C18.0122 3.73083 23.0008 3.73421 23.3446 3.92683L33.2909 2.13576C33.982 2.59198 33.8651 3.20364 33.9064 4.04173C34.0095 6.15046 34.0576 9.42507 34.0508 13.2302L34.0473 13.2944L26.0882 13.8419C24.1113 14.0244 23.881 14.5212 23.8741 15.4167C23.8741 15.4167 23.7813 21.5536 23.7262 23.7097C23.6506 26.7748 23.3824 31.3437 23.379 31.4957C23.3549 32.2291 22.853 32.7664 22.1413 32.8238C22.1413 32.8238 19.604 32.9151 17.8643 32.8982C17.8506 32.8982 17.8403 32.8982 17.8265 32.8982C17.8128 32.8982 17.8025 32.8982 17.7887 32.8982C16.049 32.9117 13.5117 32.8238 13.5117 32.8238C12.8001 32.763 12.2947 32.2291 12.274 31.4957C12.2706 31.3437 12.0024 26.7748 11.9268 23.7097C11.8718 21.5536 11.779 15.4167 11.779 15.4167C11.7755 14.5212 11.5417 14.0244 9.56484 13.8419L1.59884 13.2201C1.59197 9.41831 1.6401 6.14708 1.74324 4.04173ZM17.8231 34.2465H17.8609L21.8284 34.206C24.9227 34.2229 24.6167 33.9627 25.0293 31.2862C25.1324 30.6171 26.5661 15.5552 26.5661 15.5552C26.6142 15.2072 26.8102 15.0585 27.0887 15.0247L33.8238 14.1562C33.9476 14.1393 34.0576 14.2373 34.0542 14.3623C34.0542 14.3623 33.5041 39.2886 32.7924 42.3199C32.6377 42.9721 32.4658 43.1242 31.8882 43.2593C31.8882 43.2593 28.4948 44.0467 17.83 44.0569C7.1582 44.0433 3.76482 43.256 3.76482 43.256C3.18723 43.1208 3.01533 42.9721 2.86061 42.3165C2.14893 39.2886 1.59884 14.3623 1.59884 14.3623C1.5954 14.2407 1.70542 14.1427 1.82919 14.1562L8.56437 15.0247C8.84285 15.0619 9.03882 15.2072 9.08695 15.5552C9.08695 15.5552 10.5206 30.6171 10.6238 31.2862C11.0363 33.9593 10.7303 34.2229 13.8246 34.206L17.7921 34.2465H17.8231Z" fill="#FEFEFE"/>
      <path d="M14.8762 37.0572C14.8624 37.037 14.8384 37.0234 14.8143 37.0234H13.7313C13.7038 37.0234 13.6832 37.037 13.666 37.0572L11.414 40.3454C11.3968 40.369 11.414 40.4028 11.445 40.4028H12.497C12.5211 40.4028 12.5452 40.3893 12.5589 40.369L13.1399 39.5242C13.1675 39.4836 13.2156 39.46 13.2637 39.46H15.2784C15.33 39.46 15.3747 39.4836 15.4022 39.5242L15.9832 40.369C15.997 40.3893 16.021 40.4028 16.0451 40.4028H17.0972C17.1281 40.4028 17.1453 40.369 17.1281 40.3454L14.8762 37.0572ZM14.8555 38.9294H13.69C13.6316 38.9294 13.5938 38.8652 13.6282 38.8145L14.2092 37.9629C14.2401 37.919 14.302 37.919 14.333 37.9629L14.9174 38.8145C14.9484 38.8652 14.914 38.9294 14.8555 38.9294Z" fill="#FEFEFE"/>
      <path d="M11.3697 37.0234H5.96158C5.93064 37.0234 5.91345 37.0572 5.93064 37.0809L6.20912 37.4898C6.23663 37.5303 6.28476 37.554 6.33289 37.554H8.06912C8.11037 37.554 8.14475 37.5878 8.14475 37.6283V40.3623C8.14475 40.3859 8.16194 40.4028 8.18601 40.4028H9.13148C9.15555 40.4028 9.17274 40.3859 9.17274 40.3623V37.6283C9.17274 37.5878 9.20712 37.554 9.24837 37.554H10.988C11.0396 37.554 11.0843 37.5303 11.1118 37.4898L11.3903 37.0809C11.4178 37.0572 11.4006 37.0234 11.3697 37.0234Z" fill="#FEFEFE"/>
      <path d="M23.4779 37.0234H22.5325C22.5084 37.0234 22.4912 37.0437 22.4912 37.064V39.4296C22.4912 39.46 22.4568 39.4769 22.4293 39.46L19.3041 37.0572C19.2766 37.037 19.2422 37.0234 19.2044 37.0234H18.2727C18.2486 37.0234 18.2314 37.0437 18.2314 37.064V40.3623C18.2314 40.3859 18.2486 40.4028 18.2727 40.4028H19.2182C19.2422 40.4028 19.2594 40.3859 19.2594 40.3623V37.9967C19.2594 37.9663 19.2938 37.9494 19.3213 37.9663L22.4465 40.369C22.474 40.3893 22.5084 40.4028 22.5462 40.4028H23.4779C23.502 40.4028 23.5192 40.3859 23.5192 40.3623V37.064C23.5192 37.0437 23.502 37.0234 23.4779 37.0234Z" fill="#FEFEFE"/>
      <path d="M30.0004 40.3628L27.7382 38.5278C27.7176 38.5109 27.7176 38.4771 27.7416 38.4602L29.997 37.0679C30.0176 37.0578 30.0073 37.0273 29.9833 37.0273H28.8281C28.7868 37.0273 28.749 37.0375 28.7146 37.0611L26.2564 38.5785C26.2289 38.5954 26.1911 38.5751 26.1911 38.5447V37.0713C26.1911 37.0476 26.1739 37.0307 26.1498 37.0307H25.2043C25.1803 37.0307 25.1631 37.0476 25.1631 37.0713V40.3695C25.1631 40.3932 25.1837 40.4101 25.2043 40.4101H26.1498C26.1739 40.4101 26.1911 40.3932 26.1911 40.3695V39.4639C26.1911 39.4368 26.2048 39.4132 26.2289 39.3997L27.03 38.9063C27.0575 38.8894 27.0953 38.8928 27.1193 38.913L28.9106 40.3662C28.9484 40.3966 28.9965 40.4135 29.0481 40.4135H29.9833C30.0108 40.4033 30.0211 40.3763 30.0004 40.3628Z" fill="#FEFEFE"/>
    </g>
  </g>
  <defs>
    <clipPath id="clip0_1007_7958">
      <rect width="36" height="46" fill="white"/>
    </clipPath>
  </defs>
</svg>
